{
	"asset":{
		"version":"2.0",
		"generator":"Maxon Cinema 4D 2023.2.2 (#200000219)"
	},
	"scenes":[{
		"nodes":[0]
	}],
	"nodes":[{
		"name":"Platonic.1",
		"translation":[0.0,
		-8.881783998477906e-18,
		0.0],
		"scale":[1.0,
		1.0,
		1.0],
		"rotation":[-6.123234262925839e-17,
		1.2246468525851679e-16,
		-1.2246468525851679e-16,
		-1.0],
		"children":[1]
	},
	{
		"name":"Platonic.1",
		"mesh":0,
		"translation":[0.0,
		0.0,
		0.0],
		"scale":[1.0,
		1.0,
		1.0],
		"rotation":[-6.123234262925839e-17,
		1.2246468525851679e-16,
		-1.2246468525851679e-16,
		-1.0]
	}],
	"meshes":[{
		"name":"Platonic.1",
		"primitives":[{
			"attributes":{
				"POSITION":1,
				"NORMAL":2,
				"TEXCOORD_0":3
			},
			"indices":0
		}]
	}],
	"accessors":[{
		"bufferView":0,
		"type":"SCALAR",
		"componentType":5123,
		"byteOffset":0,
		"count":134298,
		"min":[0],
		"max":[25803]
	},
	{
		"bufferView":1,
		"type":"VEC3",
		"componentType":5126,
		"byteOffset":0,
		"count":25804,
		"min":[-1.0293184518814088,
		-0.8070237636566162,
		-0.9591397643089294],
		"max":[0.8991861343383789,
		1.0196905136108399,
		1.0293184518814088]
	},
	{
		"bufferView":1,
		"type":"VEC3",
		"componentType":5126,
		"byteOffset":12,
		"count":25804,
		"min":[-0.9999040961265564,
		-0.9999040961265564,
		-0.9999040961265564],
		"max":[0.9999040961265564,
		0.9999040961265564,
		0.9999040961265564]
	},
	{
		"bufferView":1,
		"type":"VEC2",
		"componentType":5126,
		"byteOffset":24,
		"count":25804,
		"min":[-0.4012911915779114,
		-0.25122886896133425],
		"max":[1.4012912511825562,
		1.0581040382385255]
	},
	{
		"bufferView":2,
		"type":"SCALAR",
		"componentType":5126,
		"byteOffset":0,
		"count":3,
		"min":[0.0],
		"max":[10.0]
	},
	{
		"bufferView":2,
		"type":"VEC4",
		"componentType":5126,
		"byteOffset":12,
		"count":3,
		"min":[0.0,
		-0.7071067690849304,
		0.0,
		-1.0],
		"max":[6.123234262925839e-17,
		0.0,
		0.7071067690849304,
		1.0]
	}],
	"bufferViews":[{
		"buffer":0,
		"byteOffset":0,
		"byteLength":268596,
		"target":34963
	},
	{
		"buffer":0,
		"byteOffset":268596,
		"byteLength":825728,
		"target":34962,
		"byteStride":32
	},
	{
		"buffer":1,
		"byteOffset":0,
		"byteLength":60
	}],
	"buffers":[{
		"uri":"data:application/octet-stream;base64,",
		"byteLength":1094324
	},
	{
		"uri":"data:application/octet-stream;base64,",
		"byteLength":60
	}],
	"animations":[{
		"samplers":[{
			"input":4,
			"interpolation":"LINEAR",
			"output":5
		}],
		"channels":[{
			"sampler":0,
			"target":{
				"path":"rotation",
				"node":1
			}
		}]
	}]
}